<svg width="106" height="74" viewBox="0 0 106 74" fill="none" xmlns="http://www.w3.org/2000/svg">
<path d="M5.04038 70.1123V59.2816H1.07812V56.7471H11.8386V59.2816H7.87631V70.1123H5.0444H5.04038Z" fill="#FFFAED"/>
<path d="M11.2848 67.9367C11.2848 66.463 12.218 65.6046 14.0604 64.9649L17.0331 63.8474C16.9325 63.0295 16.5584 62.572 15.4884 62.572C14.2615 62.572 13.1312 63.2684 12.4554 64.2482L11.0273 62.1752C11.9968 61.1185 13.6018 60.1387 15.6855 60.1387C18.1433 60.1387 19.5713 61.4545 19.5713 63.9081V67.2606C19.5713 67.6978 19.7282 67.8396 20.0862 67.8396H20.6615V70.115H18.9961C17.9462 70.115 16.9969 69.6372 16.9969 68.2404V67.5845C16.6791 68.8599 15.8263 70.3377 13.8472 70.3377C12.3427 70.3377 11.2928 69.5198 11.2928 67.9448L11.2848 67.9367ZM14.889 68.2363C16.2366 68.2363 16.9888 67.5602 16.9888 66.3617V65.6815L14.9293 66.5399C14.1569 66.8597 13.8995 67.1391 13.8995 67.5156C13.8995 67.9732 14.2173 68.2323 14.889 68.2323V68.2363Z" fill="#FFFAED"/>
<path d="M21.0745 68.3386L22.3818 66.4033C23.1944 67.2819 24.6023 68.1403 26.0665 68.1403C26.8388 68.1403 27.2934 67.9014 27.2934 67.3831C27.2934 66.8649 26.7383 66.6665 25.7085 66.4074L24.4011 66.0875C22.6553 65.63 21.3882 64.9295 21.3882 63.2169C21.3882 61.3018 22.9329 60.1641 25.3102 60.1641C27.41 60.1641 28.9346 61.0831 29.6104 61.9374L28.3433 63.8525C27.3939 62.8565 26.2033 62.318 25.0729 62.318C24.377 62.318 23.9627 62.5772 23.9627 63.0549C23.9627 63.5732 24.377 63.7716 25.6683 64.1319L26.7584 64.4315C28.8984 65.0105 29.8276 65.8486 29.8276 67.3426C29.8276 69.2375 28.2427 70.3145 25.982 70.3145C23.7213 70.3145 21.8991 69.5169 21.0664 68.3386H21.0745Z" fill="#FFFAED"/>
<path d="M31.7938 67.2207V62.5119H30.3457V60.3377H31.7938V59.1797L34.6257 57.6816V60.3336H37.3209V62.5078H34.6257V66.6943C34.6257 67.492 35.024 67.7713 35.5751 67.7713C36.1905 67.7713 36.7255 67.2733 37.0232 66.7348L37.8358 69.067C37.4214 69.6054 36.4279 70.3059 34.9435 70.3059C32.8035 70.3059 31.7938 69.0305 31.7938 67.2126V67.2207Z" fill="#FFFAED"/>
<path d="M37.6642 72.367L38.7945 69.9741C39.41 70.6908 40.122 71.1888 40.9748 71.1888C41.727 71.1888 42.1655 70.9296 42.4792 69.9903L42.6763 69.4721H40.9506L37.8009 60.3379H40.9305L42.3183 64.9455L43.0303 68.2169L43.7624 64.9455L45.1301 60.3379H48.32L44.8324 70.711C44.0802 72.8852 42.8694 73.7031 41.0472 73.7031C39.5789 73.7031 38.3319 73.0634 37.6602 72.367H37.6642Z" fill="#FFFAED"/>
<path d="M49.4941 70.1121V56.751H56.0148C58.9472 56.751 60.1178 58.249 60.1178 60.1398C60.1178 62.4153 58.0985 63.1522 56.0349 63.2534C59.4018 63.3749 60.5925 64.7312 60.5925 66.622C60.5925 69.1161 58.7501 70.1121 55.9343 70.1121H49.4941V70.1121ZM52.3301 59.2815V62.1521H55.3028C56.413 62.1521 57.125 61.7918 57.125 60.7148C57.125 59.6378 56.3929 59.2774 55.2625 59.2774H52.3301V59.2815ZM52.3301 64.4478V67.5776H55.52C57.0244 67.5776 57.6801 67.0795 57.6801 66.0026C57.6801 64.9256 56.9078 64.4478 55.5602 64.4478H52.3301Z" fill="#FFFAED"/>
<path d="M61.7594 67.9367C61.7594 66.463 62.6926 65.6046 64.535 64.9649L67.5077 63.8474C67.4071 63.0295 67.033 62.572 65.963 62.572C64.7361 62.572 63.6058 63.2684 62.93 64.2482L61.502 62.1752C62.4714 61.1185 64.0764 60.1387 66.1601 60.1387C68.6179 60.1387 70.0459 61.4545 70.0459 63.9081V67.2606C70.0459 67.6978 70.2028 67.8396 70.5608 67.8396H71.1361V70.115H69.4707C68.4208 70.115 67.4675 69.6372 67.4675 68.2404V67.5845C67.1497 68.8599 66.2969 70.3377 64.3178 70.3377C62.8133 70.3377 61.7634 69.5198 61.7634 67.9448L61.7594 67.9367ZM65.3636 68.2363C66.7112 68.2363 67.4634 67.5602 67.4634 66.3617V65.6815L65.4039 66.5399C64.6315 66.8597 64.3741 67.1391 64.3741 67.5156C64.3741 67.9732 64.6919 68.2323 65.3636 68.2323V68.2363Z" fill="#FFFAED"/>
<path d="M71.5491 68.3386L72.8564 66.4033C73.669 67.2819 75.0769 68.1403 76.5411 68.1403C77.3134 68.1403 77.768 67.9014 77.768 67.3831C77.768 66.8649 77.2129 66.6665 76.1831 66.4074L74.8757 66.0875C73.1299 65.63 71.8628 64.9295 71.8628 63.2169C71.8628 61.3018 73.4075 60.1641 75.7848 60.1641C77.8846 60.1641 79.4092 61.0831 80.085 61.9374L78.8179 63.8525C77.8686 62.8565 76.6779 62.318 75.5475 62.318C74.8516 62.318 74.4373 62.5772 74.4373 63.0549C74.4373 63.5732 74.8516 63.7716 76.1429 64.1319L77.233 64.4315C79.373 65.0105 80.3022 65.8486 80.3022 67.3426C80.3022 69.2375 78.7173 70.3145 76.4566 70.3145C74.1959 70.3145 72.3737 69.5169 71.541 68.3386H71.5491Z" fill="#FFFAED"/>
<path d="M86.1367 65.224C86.1367 62.2522 88.0193 60.1387 91.0121 60.1387C93.3291 60.1387 94.9341 61.4141 95.5295 63.0903L93.1722 64.4669C92.9349 63.2522 92.2993 62.5113 91.1127 62.5113C89.8657 62.5113 89.033 63.4304 89.033 65.224C89.033 67.0176 89.8657 67.9367 91.1127 67.9367C92.3597 67.9367 92.9349 67.1998 93.1722 65.9811L95.5295 67.3577C94.9341 69.034 93.3291 70.3093 91.0121 70.3093C88.0193 70.3093 86.1367 68.2161 86.1367 65.224V65.224Z" fill="#FFFAED"/>
<path d="M95.967 68.3386L97.2744 66.4033C98.0869 67.2819 99.4948 68.1403 100.959 68.1403C101.731 68.1403 102.186 67.9014 102.186 67.3831C102.186 66.8649 101.631 66.6665 100.601 66.4074L99.2937 66.0875C97.5479 65.63 96.2808 64.9295 96.2808 63.2169C96.2808 61.3018 97.8255 60.1641 100.203 60.1641C102.303 60.1641 103.827 61.0831 104.503 61.9374L103.236 63.8525C102.287 62.8565 101.096 62.318 99.9655 62.318C99.2696 62.318 98.8552 62.5772 98.8552 63.0549C98.8552 63.5732 99.2696 63.7716 100.561 64.1319L101.651 64.4315C103.791 65.0105 104.72 65.8486 104.72 67.3426C104.72 69.2375 103.135 70.3145 100.875 70.3145C98.6139 70.3145 96.7917 69.5169 95.959 68.3386H95.967Z" fill="#FFFAED"/>
<path d="M83.6766 57.382C82.4457 57.382 81.7578 58.0015 81.7578 59.0946V60.3255L83.6404 59.3376C84.5052 58.8841 84.5817 58.382 84.5817 58.0338C84.5817 57.6128 84.292 57.3779 83.6766 57.3779V57.382Z" fill="#FFFAED"/>
<path d="M81.7539 70.1118V61.836L84.5858 60.3379V70.1118H81.7539V70.1118Z" fill="#FFFAED"/>
<path d="M105.802 25.1581C105.741 19.9594 104.671 14.7809 101.473 10.562C98.3961 6.49701 94.2408 3.66282 89.474 1.95827C84.5021 0.17678 78.8624 -0.713963 73.6894 0.69503C68.2387 2.185 63.4317 5.44431 59.9321 9.91017C53.5442 18.0686 51.0623 29.8304 57.7398 38.6164C64.2282 47.1554 76.8431 52.2124 87.3903 50.0624C98.8507 47.7263 105.504 36.7985 105.733 25.5791C105.753 25.4415 105.806 25.3119 105.802 25.1621V25.1581Z" fill="#FFFAED"/>
<path d="M49.5787 2.23404C48.6133 1.82916 47.0565 1.79272 45.9906 1.6915C45.6205 1.6753 44.2246 1.60647 43.8224 1.61862C41.5657 1.6672 30.1657 1.61457 28.3394 1.62671C18.3674 1.6915 17.1486 1.54169 7.17253 1.72389C3.79355 1.78462 1.05417 1.5093 0.221492 5.53384C0.112882 6.04804 -0.333626 7.31937 0.470892 9.53408C0.933491 10.8378 1.58917 11.9674 2.30519 13.1942C5.46293 18.6318 7.72363 23.045 10.8733 28.4867C12.6392 31.5354 15.2941 35.6167 17.056 38.6654C18.8099 41.6939 20.0167 44.0463 21.9556 46.9696C23.4278 48.9252 27.5711 49.6216 29.5261 46.2367C31.0144 43.9815 32.0281 42.0219 33.4843 39.7384C35.8335 36.0499 38.0902 32.4059 40.2986 28.677C41.4692 26.7011 47.3623 17.4172 47.8611 16.6155C49.1362 14.5668 50.0735 13.1335 51.1837 11.0807C52.5836 8.49353 52.9134 3.63493 49.5787 2.23809V2.23404Z" fill="#FFFAED"/>
</svg>
