<svg width="116" height="116" viewBox="0 0 116 116" fill="none" xmlns="http://www.w3.org/2000/svg">
<path d="M47.934 115.101C16.4472 109.559 -4.66185 79.4109 0.899027 47.924C6.44131 16.4372 36.5891 -4.67186 68.0759 0.889018C99.5628 6.4499 120.672 36.5791 115.111 68.0659C109.55 99.5528 79.4209 120.662 47.934 115.101Z" fill="#91C893"/>
<path d="M21.4112 35.8722L14.1393 32.8592L15.2552 31.3342L19.105 33.1382L21.1508 34.2727L19.663 32.6919L16.743 29.307L18.0263 27.5587L22.1179 29.3256L24.0707 30.2741L22.3783 28.656L19.4956 25.5315L20.6115 24.0065L25.6888 30.0137L24.3683 31.8177L20.5557 30.2555L18.3239 29.121L20.0721 30.9064L22.7131 34.0867L21.4112 35.8722Z" fill="#FFFAED"/>
<path d="M24.928 26.815C23.7563 25.5503 23.7377 23.9509 24.9466 22.8164C26.2484 21.5889 27.7177 21.8493 28.722 22.928C28.8894 23.0953 29.094 23.3557 29.1498 23.4673L26.3414 26.0897C26.9552 26.5918 27.5875 26.5174 28.1269 26.0153C28.7034 25.4759 28.7778 24.9366 28.6104 24.453L30.0239 24.4902C30.1169 25.2156 29.9495 26.1455 29.0196 27.001C27.7177 28.2285 26.0997 28.0983 24.928 26.8336M25.7091 25.4015L27.4759 23.7649C26.9366 23.2627 26.36 23.2441 25.8207 23.7463C25.2999 24.2298 25.2627 24.8064 25.7091 25.4015Z" fill="#FFFAED"/>
<path d="M30.7078 15.8788L29.3452 16.7855L33.5797 23.1493L34.9423 22.2426L30.7078 15.8788Z" fill="#FFFAED"/>
<path d="M34.4305 19.1718C33.6494 17.6654 34.0771 16.0845 35.6022 15.3034C37.1644 14.5037 38.7081 15.0616 39.4892 16.5681C40.2703 18.0931 39.8426 19.6554 38.2803 20.4737C36.7553 21.2549 35.2302 20.6969 34.4491 19.1718M38.02 17.3306C37.4806 16.3077 36.8669 16.1403 36.2345 16.4751C35.6208 16.7913 35.3976 17.405 35.9184 18.4279C36.4391 19.4322 37.0714 19.6182 37.6852 19.302C38.2989 18.9859 38.5407 18.3535 38.0014 17.3492" fill="#FFFAED"/>
<path d="M42.707 18.3527L39.006 13.7404L40.717 13.1266L42.3351 15.3956L43.3952 17.1067L43.1534 15.1166L43.0046 12.3269L44.697 11.7318L44.6785 17.6646L42.707 18.3527Z" fill="#FFFAED"/>
<path d="M46.1315 14.2616C45.7967 12.5692 46.6337 11.1929 48.2517 10.8767C50 10.5234 51.1158 11.5091 51.4134 12.9411C51.4506 13.1643 51.5064 13.4991 51.4878 13.6293L47.731 14.3732C47.9913 15.1171 48.5865 15.3961 49.2932 15.2473C50.0743 15.0985 50.4091 14.6708 50.5207 14.1686L51.6924 14.9498C51.3948 15.6193 50.7625 16.3074 49.5164 16.5492C47.7682 16.9026 46.4663 15.9541 46.1129 14.2616M47.5264 13.4619L49.8884 12.9969C49.6838 12.2716 49.2188 11.974 48.4935 12.1042C47.8054 12.2344 47.452 12.6994 47.5264 13.4619Z" fill="#FFFAED"/>
<path d="M56.1715 15.5639L54.9626 9.92862L56.7667 9.98441L57.1014 12.7928L57.2502 14.5596L57.6594 12.8299L58.4405 10.0588L60.3003 10.1146L60.9141 12.9415L61.1745 14.7084L61.472 12.9601L61.9928 10.189L63.7782 10.2448L62.1788 15.7871L60.133 15.7127L59.6122 13.2019L59.3518 11.1747L58.9241 13.1647L58.2173 15.6383L56.1715 15.5639Z" fill="#FFFAED"/>
<path d="M64.1882 16.066L65.8063 8.60806L67.4057 8.96143L66.6246 12.5509C66.9966 11.6954 67.7033 11.0072 68.8378 11.249C69.8793 11.4722 70.3815 12.2533 70.1397 13.3692L69.3028 17.1819L67.7033 16.8285L68.41 13.5738C68.5588 12.9043 68.4658 12.4579 67.7405 12.2905C66.978 12.1231 66.6432 12.4951 66.4386 13.3878L65.7877 16.4007L64.1882 16.0474V16.066Z" fill="#FFFAED"/>
<path d="M71.1245 14.8008C71.7196 13.2014 73.1889 12.476 74.7883 13.0712C76.425 13.7035 77.0387 15.2286 76.4436 16.8094C75.8298 18.4089 74.3791 19.1342 72.7239 18.5019C71.1245 17.8881 70.5107 16.3817 71.1245 14.7822M74.8813 16.2143C75.2905 15.1356 74.9929 14.559 74.342 14.3172C73.691 14.0755 73.0959 14.3172 72.6867 15.3773C72.2776 16.4374 72.5751 17.0326 73.2261 17.2744C73.877 17.5161 74.4907 17.2744 74.8999 16.2143" fill="#FFFAED"/>
<path d="M79.8184 13.132L76.3422 19.9397L77.7998 20.684L81.276 13.8762L79.8184 13.132Z" fill="#FFFAED"/>
<path d="M80.2569 18.7622C81.2054 17.3301 82.7676 16.9395 84.1439 17.8322C85.6318 18.818 85.7433 20.3058 84.9436 21.5147C84.8134 21.7193 84.6089 21.9797 84.5159 22.0541L81.317 19.9524C80.9636 20.6778 81.2054 21.2729 81.8191 21.6821C82.4887 22.1098 83.028 22.0727 83.4558 21.7751L83.7533 23.1513C83.0652 23.4303 82.1353 23.4675 81.0752 22.7608C79.5687 21.7751 79.3084 20.1756 80.2569 18.7436M81.8191 19.1527L83.8277 20.4732C84.1811 19.8223 84.0695 19.2643 83.4558 18.8552C82.8606 18.4646 82.3027 18.5576 81.8191 19.1341" fill="#FFFAED"/>
<path d="M86.1538 26.555L89.1481 23.4119L88.5902 22.8726L89.4457 21.9798L90.0036 22.5192L90.0966 22.4262C90.9336 21.5521 92.0309 21.4591 92.998 22.389C93.5373 22.9098 93.7047 23.5049 93.7419 23.8583L92.533 24.3046C92.5516 23.9885 92.4772 23.6165 92.2354 23.3933C91.9565 23.1329 91.6775 23.1701 91.4357 23.4305L91.2125 23.6723L92.2354 24.6394L91.3799 25.5321L90.357 24.565L87.3627 27.7081L86.1724 26.5736L86.1538 26.555Z" fill="#FFFAED"/>
<path d="M90.7276 27.0383C92.0295 25.9596 93.6661 26.0339 94.7634 27.3544C95.8793 28.7121 95.6561 30.3301 94.3543 31.4274C93.0338 32.5247 91.3971 32.4317 90.2812 31.0741C89.1839 29.7536 89.4071 28.1355 90.7276 27.0569M93.2942 30.1442C94.1869 29.4188 94.2055 28.7679 93.7591 28.2285C93.3314 27.7078 92.6804 27.5962 91.7877 28.3401C90.9136 29.0655 90.8764 29.7164 91.3041 30.2558C91.7505 30.7951 92.4014 30.8881 93.2756 30.1628" fill="#FFFAED"/>
<path d="M95.0437 32.3946C96.5129 31.5205 98.1124 31.8553 98.9865 33.3245C99.8978 34.831 99.4143 36.4118 97.9636 37.286C96.4943 38.1601 94.8949 37.8253 93.9836 36.3189C93.1095 34.8496 93.5744 33.2873 95.0437 32.4132M97.1081 35.8725C98.0938 35.2774 98.224 34.645 97.8706 34.0499C97.5173 33.4547 96.9035 33.2687 95.9178 33.8639C94.9321 34.4404 94.8019 35.0914 95.1553 35.6865C95.5086 36.2817 96.141 36.4676 97.1267 35.8911" fill="#FFFAED"/>
<path d="M98.484 38.2718C100.195 37.5837 101.497 37.9743 101.999 39.1831C102.445 40.2618 101.869 41.0058 101.088 41.4893L104.473 40.1131L105.086 41.6381L98.0004 44.5022L97.3867 42.9772L98.8374 42.382C97.9446 42.5866 97.0519 42.5122 96.6242 41.4149C96.1034 40.1502 96.7729 38.9414 98.5026 38.2532M98.0562 41.5451C98.3166 42.1775 98.856 42.382 99.6929 42.0287L100.251 41.8055C101.106 41.4707 101.348 40.9314 101.088 40.2804C100.809 39.6109 100.102 39.3877 99.1163 39.7969C98.1306 40.206 97.7773 40.857 98.0562 41.5451Z" fill="#FFFAED"/>
<path d="M99.229 45.0788L100.475 45.5437C100.103 46.1203 99.8242 47.0316 100.029 47.8499C100.14 48.2777 100.326 48.5008 100.624 48.445C100.903 48.3706 100.94 48.0359 100.94 47.4221V46.641C100.94 45.5995 101.163 44.7812 102.112 44.558C103.172 44.2976 104.027 45.0044 104.344 46.3434C104.641 47.5337 104.344 48.5008 103.953 49.003L102.707 48.5566C103.135 47.8871 103.265 47.1432 103.116 46.5108C103.023 46.1203 102.818 45.9157 102.558 45.9901C102.261 46.0645 102.223 46.3248 102.205 47.106V47.7569C102.168 49.0402 101.833 49.6725 100.996 49.8771C99.9358 50.1375 99.1174 49.3935 98.8199 48.1103C98.5223 46.9014 98.7083 45.7111 99.229 45.0788Z" fill="#FFFAED"/>
<path d="M7.63196 60.2545L13.8066 59.8267L13.6578 57.5391L15.0899 57.4275L15.5362 63.6579L14.0856 63.7509L13.9182 61.4633L7.74355 61.8911L7.63196 60.2545Z" fill="#FFFAED"/>
<path d="M8.13383 65.5921L15.5917 63.9554L15.9451 65.5549L12.3556 66.336C13.2855 66.336 14.1969 66.6708 14.4572 67.8053C14.6804 68.8468 14.1783 69.6279 13.0624 69.8697L9.24973 70.7066L8.89636 69.1071L12.1511 68.4004C12.8206 68.2516 13.1926 67.9912 13.0252 67.2659C12.8578 66.5034 12.3742 66.3546 11.4815 66.5406L8.4686 67.1915L8.11523 65.5921H8.13383Z" fill="#FFFAED"/>
<path d="M12.2991 71.2275C13.9171 70.6323 15.405 71.2461 15.9815 72.7897C16.5953 74.4822 15.7955 75.7283 14.4379 76.2304C14.2147 76.3048 13.8985 76.3978 13.7683 76.4164L12.4478 72.8083C11.7411 73.1803 11.5737 73.8126 11.8341 74.5008C12.1131 75.2447 12.578 75.5237 13.0988 75.5609L12.5222 76.8442C11.8155 76.6582 11.0344 76.1374 10.588 74.9471C9.97428 73.2733 10.6996 71.8226 12.3177 71.2275M13.3406 72.4922L14.1775 74.7612C14.847 74.445 15.0888 73.9242 14.8284 73.2361C14.5866 72.5852 14.0659 72.3062 13.3406 72.4922Z" fill="#FFFAED"/>
<path d="M13.5101 81.1596L17.2855 79.0208L16.8949 78.3512L17.9736 77.7375L18.3642 78.4256L18.4758 78.3512C19.5359 77.7561 20.596 77.9793 21.2655 79.151C21.6375 79.8019 21.6189 80.4342 21.5631 80.769L20.2612 80.862C20.3728 80.5644 20.41 80.1925 20.2426 79.8949C20.0566 79.5601 19.7777 79.5043 19.4615 79.6903L19.1639 79.8577L19.8707 81.0852L18.792 81.6989L18.0852 80.4714L14.2912 82.6102L13.4915 81.1782L13.5101 81.1596Z" fill="#FFFAED"/>
<path d="M17.0433 83.931L20.1864 81.6249L21.1535 82.9453L18.4568 84.9168C17.8988 85.3259 17.6756 85.7165 18.122 86.3302C18.5869 86.9626 19.0705 86.9068 19.8144 86.3674L22.3066 84.5448L23.2737 85.8653L18.7729 89.1758L17.8058 87.8553L19.0705 86.9254C18.2336 87.2973 17.2851 87.3159 16.6155 86.4046C15.9832 85.5491 16.1134 84.6192 17.0433 83.931Z" fill="#FFFAED"/>
<path d="M21.3212 89.5286L23.2926 87.6874L22.7161 87.0736L23.6274 86.2181L24.2039 86.8318L24.6875 86.3855L26.4357 86.9992L25.3198 88.0407L26.3799 89.1752L25.4686 90.0308L24.4085 88.8777L22.6603 90.5143C22.3255 90.8305 22.3627 91.1095 22.5859 91.3326C22.8277 91.593 23.2554 91.6302 23.5902 91.5372L22.9392 92.7833C22.5487 92.8205 21.8605 92.6717 21.284 92.0394C20.4471 91.1281 20.5773 90.1981 21.3398 89.4914" fill="#FFFAED"/>
<path d="M24.3129 92.6717L26.8423 89.696L28.0883 90.7561L25.9309 93.2855C25.4846 93.8062 25.3544 94.2526 25.9309 94.7361C26.5261 95.2383 26.991 95.0709 27.5862 94.3828L29.5948 92.0208L30.8409 93.0809L27.2142 97.3399L25.9681 96.2798L26.9725 95.0895C26.2471 95.6475 25.3172 95.8892 24.4617 95.1453C23.6434 94.4572 23.569 93.5273 24.3129 92.6531" fill="#FFFAED"/>
<path d="M28.6466 98.3809L31.6968 93.6941L33.073 94.5869L32.1059 96.0561C32.7755 95.368 33.7426 94.8844 34.6539 95.4796C35.342 95.9259 35.435 96.6141 34.9701 97.358C34.6353 97.8601 34.2261 98.1763 33.9844 98.2693L32.6453 97.3952C32.9242 97.3394 33.3148 97.1162 33.4822 96.8372C33.6496 96.5769 33.6682 96.2793 33.3706 96.0933C32.9057 95.7957 32.1245 96.0003 31.6224 96.7814L30.0043 99.255L28.6281 98.3623L28.6466 98.3809Z" fill="#FFFAED"/>
<path d="M34.6728 98.9393C35.4167 97.3956 36.9232 96.8005 38.411 97.5072C40.0291 98.2884 40.3081 99.739 39.6757 101.06C39.5641 101.283 39.4154 101.543 39.3224 101.655L35.8631 99.9808C35.6213 100.743 35.9189 101.301 36.5884 101.617C37.3138 101.952 37.8345 101.841 38.2251 101.506L38.69 102.826C38.0391 103.18 37.1278 103.347 35.9933 102.808C34.3752 102.027 33.9103 100.483 34.6542 98.9207M36.2722 99.1253L38.4482 100.185C38.7272 99.4972 38.5226 98.9579 37.8717 98.6417C37.2394 98.3442 36.6814 98.4929 36.2722 99.1439" fill="#FFFAED"/>
<path d="M41.984 105.113L43.6579 99.7756L45.2201 100.278L43.5463 105.615L41.984 105.113ZM43.8624 99.1433L44.2716 97.8228L45.8338 98.325L45.4247 99.6455L43.8624 99.1619V99.1433Z" fill="#FFFAED"/>
<path d="M44.9773 105.021L45.963 104.11C46.3164 104.705 47.0045 105.356 47.8414 105.542C48.2878 105.635 48.5668 105.542 48.6226 105.263C48.6783 104.984 48.3994 104.798 47.8414 104.519L47.1347 104.184C46.2048 103.719 45.5724 103.161 45.777 102.213C46.0002 101.134 47.0231 100.706 48.3808 100.985C49.5711 101.246 50.3336 101.952 50.6126 102.51L49.6641 103.422C49.2549 102.752 48.6411 102.306 48.0088 102.157C47.6182 102.064 47.3393 102.157 47.2835 102.436C47.2277 102.733 47.4323 102.882 48.1204 103.254L48.6969 103.552C49.8314 104.147 50.2592 104.723 50.0732 105.56C49.85 106.62 48.8085 107.03 47.5253 106.751C46.2978 106.49 45.3121 105.802 44.9773 105.04" fill="#FFFAED"/>
<path d="M54.5745 107.699L53.2168 102.082L55.0208 102.119L55.43 104.909L55.6346 106.676L56.0065 104.927L56.7133 102.138L58.5731 102.156L59.2426 104.965L59.5588 106.713L59.8006 104.965L60.2469 102.175L62.0696 102.193L60.5817 107.754L58.5359 107.736L57.9594 105.244L57.6432 103.216L57.2712 105.244L56.6203 107.717L54.5745 107.699Z" fill="#FFFAED"/>
<path d="M63.5019 107.513L62.293 99.9622L63.911 99.7018L64.4876 103.328C64.5248 102.399 64.9339 101.506 66.0684 101.32C67.1285 101.152 67.8724 101.692 68.0584 102.826L68.6722 106.695L67.0541 106.955L66.5334 103.663C66.4218 102.994 66.18 102.603 65.4361 102.715C64.6549 102.845 64.4876 103.31 64.6363 104.203L65.1199 107.253L63.5019 107.513Z" fill="#FFFAED"/>
<path d="M69.3038 103.682C68.8017 102.045 69.5084 100.576 71.145 100.074C72.8189 99.553 74.2509 100.39 74.7531 102.008C75.2553 103.645 74.5485 105.114 72.8561 105.635C71.2194 106.137 69.806 105.318 69.3038 103.682ZM73.1537 102.51C72.8189 101.413 72.2237 101.134 71.5542 101.338C70.9033 101.543 70.5685 102.101 70.9033 103.198C71.238 104.296 71.8332 104.575 72.4841 104.37C73.1537 104.165 73.4884 103.607 73.1537 102.51Z" fill="#FFFAED"/>
<path d="M75.3975 96.4408L73.8882 97.0737L76.8442 104.123L78.3535 103.49L75.3975 96.4408Z" fill="#FFFAED"/>
<path d="M78.3236 100.501C77.5053 98.976 77.8959 97.4138 79.3465 96.6327C80.9274 95.7771 82.2851 96.3909 82.9732 97.6928C83.0848 97.8973 83.215 98.1949 83.2522 98.3251L79.8859 100.148C80.3508 100.799 81.0018 100.873 81.6341 100.52C82.3409 100.148 82.5454 99.6456 82.4896 99.1248L83.8473 99.5154C83.7543 100.241 83.3452 101.096 82.2479 101.691C80.667 102.547 79.1606 102.008 78.3236 100.501ZM79.4395 99.3108L81.5597 98.1577C81.1506 97.5254 80.6112 97.3766 79.9789 97.73C79.3651 98.0647 79.1606 98.6041 79.4581 99.3108" fill="#FFFAED"/>
<path d="M87.9758 97.9353L85.3162 94.4946L84.7025 94.9782L83.9399 93.9925L84.5537 93.5089L84.4607 93.3973C83.7168 92.4302 83.7912 91.3515 84.8699 90.5332C85.465 90.0868 86.0787 89.9938 86.4321 90.031L86.6925 91.2957C86.3763 91.2213 86.0229 91.2399 85.744 91.4445C85.4278 91.6863 85.4278 91.9653 85.651 92.2442L85.8556 92.5046L86.9715 91.6491L87.734 92.6348L86.6181 93.4903L89.259 96.931L87.9572 97.9353H87.9758Z" fill="#FFFAED"/>
<path d="M89.0729 93.6016C87.9012 92.3741 87.8454 90.7375 89.0729 89.5472C90.3376 88.3383 91.9742 88.4313 93.1645 89.6588C94.3548 90.8863 94.3734 92.5229 93.1087 93.7504C91.8812 94.9407 90.2446 94.8477 89.0729 93.6016ZM91.9742 90.8119C91.1745 89.975 90.5236 90.0122 90.0214 90.4957C89.5193 90.9793 89.4821 91.6116 90.2818 92.4485C91.0629 93.2668 91.7325 93.2482 92.2346 92.7833C92.7368 92.2997 92.774 91.6488 91.9928 90.8119" fill="#FFFAED"/>
<path d="M93.8521 88.8962C92.513 87.8547 92.234 86.2367 93.2941 84.8976C94.3728 83.5028 96.0095 83.3726 97.3486 84.4141C98.7062 85.4556 98.9666 87.0736 97.8693 88.4685C96.8092 89.8262 95.1912 89.9563 93.8521 88.8962ZM96.3257 85.7159C95.4143 85.0092 94.782 85.1208 94.3542 85.6788C93.9265 86.2181 93.9823 86.869 94.875 87.5758C95.7677 88.2825 96.4187 88.1709 96.8464 87.6316C97.2742 87.0736 97.2184 86.4227 96.3257 85.7159Z" fill="#FFFAED"/>
<path d="M97.9266 83.5771C96.3271 82.6658 95.825 81.4011 96.4573 80.2666C97.0339 79.2437 97.9638 79.2437 98.8379 79.5599L95.6576 77.7559L96.4759 76.3238L103.115 80.0993L102.297 81.5313L100.921 80.7502C101.628 81.3267 102.13 82.0707 101.553 83.0936C100.884 84.2839 99.526 84.5071 97.908 83.5957M100.772 81.9033C101.107 81.3082 100.939 80.7688 100.14 80.3224L99.619 80.0249C98.8193 79.5785 98.2613 79.6901 97.908 80.3038C97.5546 80.9362 97.815 81.6243 98.7449 82.1451C99.6748 82.6844 100.4 82.5542 100.772 81.9033Z" fill="#FFFAED"/>
<path d="M102.818 78.3698L102.074 77.2539C102.707 76.9936 103.469 76.4356 103.785 75.6359C103.953 75.2267 103.934 74.9291 103.655 74.8176C103.376 74.706 103.153 74.9663 102.8 75.4685L102.353 76.1008C101.739 76.9378 101.088 77.4771 100.177 77.1051C99.1543 76.696 98.8939 75.6173 99.4146 74.334C99.861 73.1995 100.679 72.5858 101.293 72.3998L102.037 73.4971C101.293 73.7946 100.754 74.3154 100.512 74.9291C100.363 75.3011 100.419 75.5801 100.661 75.6917C100.94 75.8033 101.126 75.6173 101.609 75.0035L102 74.4828C102.762 73.4599 103.413 73.1251 104.213 73.4413C105.217 73.8504 105.459 74.9291 104.957 76.138C104.492 77.2911 103.655 78.1652 102.837 78.3698" fill="#FFFAED"/>
<path d="M51.3571 95.6467C30.5829 91.9828 16.6714 72.1199 20.3352 51.3456C23.9991 30.5714 43.862 16.6599 64.6363 20.3237C85.4105 23.9876 99.322 43.8505 95.6582 64.6248C91.9943 85.399 72.1314 99.3105 51.3571 95.6467ZM64.5433 20.8631C44.0666 17.255 24.4826 30.9619 20.8746 51.4386C17.2665 71.8967 30.9734 91.4992 51.4501 95.1073C71.9268 98.7154 91.5107 85.0085 95.1188 64.5318C98.7269 44.0737 85.02 24.4711 64.5433 20.8631Z" fill="#FFFAED"/>
<path d="M49.3661 77.3285C48.306 75.8593 48.9569 74.1854 49.7194 72.2326C49.9798 71.5631 50.2774 70.8005 50.5749 69.9264C50.8353 69.1453 51.0957 68.2898 51.3747 67.3599C51.7466 66.1324 52.1744 64.7933 52.6394 63.417C53.2531 61.6502 53.4391 61.2596 53.904 59.995C54.6666 58.0979 55.5221 56.1823 56.638 54.3039C56.6938 54.2109 57.2889 53.0578 58.0886 51.9791C57.6609 48.5942 56.1916 43.6657 51.3375 39.0719C49.9984 38.049 48.9383 37.7143 48.9383 37.7143C40.8667 34.4782 31.7535 43.1077 35.8451 58.8605C37.4818 65.1281 41.7036 73.7763 47.2831 78.5188C50.8167 81.5317 51.4677 81.0854 52.2302 78.7048C52.0814 78.6862 51.8954 78.7048 51.7652 78.6676C50.6865 78.4816 49.9054 78.0725 49.3661 77.3285ZM45.386 71.3585C44.6235 70.8935 43.768 69.4615 43.1356 67.8062C42.0941 65.1095 40.1227 59.809 41.499 59.1766C41.8896 58.9721 42.0012 60.4413 42.0012 60.4599C42.2057 61.6316 43.9168 65.2769 44.2887 66.8019C44.8095 68.9965 46.5949 71.6933 45.386 71.3585ZM48.3246 58.2653C47.9526 60.3297 47.6922 61.6502 47.5062 62.4313C47.3017 63.1753 46.8739 62.6173 46.8553 62.0408C46.7065 60.7761 46.4647 58.9907 45.7952 58.5815C43.0427 56.8333 43.8052 46.3624 45.5534 42.3266C46.1672 40.9318 46.8181 41.2665 46.7623 42.3266C46.6135 44.8188 45.572 48.7616 45.572 52.1465C45.3674 53.9505 46.8739 60.6087 47.655 54.8246C48.027 52.0349 48.3804 49.4684 48.5105 47.1064C48.6593 46.1207 49.1243 46.2137 49.2731 47.1436C49.5148 48.7616 49.3847 52.3325 49.2359 53.1694C48.9941 54.6201 48.6407 56.5915 48.3432 58.2839" fill="#FFFAED"/>
<path d="M78.9018 43.516C78.9018 43.516 77.8417 43.1254 76.1678 43.1254C65.4924 44.2227 61.2148 51.2157 60.3221 52.3688C59.3178 53.3917 58.3321 55.3073 58.3321 55.3073C55.189 60.6078 53.7383 66.5964 52.4364 70.5393C50.744 75.6166 48.7912 77.1231 55.2076 76.8069C62.5353 76.4535 71.1835 72.1759 76.3166 68.2145C89.2238 58.2272 87.2896 45.8594 78.9018 43.4974M57.9973 64.9598C59.1504 63.1 60.5267 61.5563 61.5496 61.1472C63.707 60.3846 60.3035 63.8625 59.169 66.3919C58.3693 68.1587 57.737 70.0929 57.2162 71.4506C57.2162 71.4506 56.7884 72.9942 56.3049 72.8826C54.7612 71.8411 56.1003 67.9727 57.9973 64.9412M82.3424 51.7364C82.547 56.0512 76.112 64.1787 73.2665 63.5835C71.3695 63.1744 74.587 61.5749 75.5355 60.459C76.8932 59.0083 78.4554 57.7251 79.6271 55.1399C80.2594 53.745 82.0449 49.4117 78.7158 53.0569C77.1163 54.8051 74.7544 58.1156 74.3638 58.3946C72.4854 58.934 75.3123 54.8981 76.67 53.2987C77.5441 52.406 78.4926 50.8809 79.7759 50.1928C80.6872 49.7092 82.0077 50.3788 82.3053 51.7364M64.6741 66.9126C67.3523 61.6307 63.7256 55.5677 69.77 51.9038C71.2765 50.9925 73.2107 49.0769 74.7358 47.961C76.6142 46.5847 78.195 46.6963 75.7215 48.7979C73.9732 50.2858 72.504 51.7178 70.4768 53.0197C69.0633 53.931 67.9102 56.2 67.6498 57.4833C67.1477 59.7709 68.0032 61.2959 67.4266 63.8439C67.0175 65.6107 66.5153 66.5964 64.8229 68.7724C63.4838 69.9069 63.893 68.4749 64.6927 66.9126" fill="#FFFAED"/>
<path d="M48.4355 112.218C18.5481 106.936 -1.48221 78.3324 3.7811 48.4264C9.04441 18.539 37.6671 -1.49135 67.5545 3.77196C97.4605 9.03527 117.491 37.658 112.209 67.5454C106.946 97.4514 78.3229 117.482 48.4355 112.2M67.4615 4.31131C37.8717 -0.896201 9.54656 18.9295 4.32045 48.5194C-0.905659 78.1092 18.9387 106.453 48.5285 111.66C78.1369 116.887 106.462 97.0422 111.67 67.4524C116.896 37.8626 97.0514 9.53742 67.4615 4.31131Z" fill="#FFFAED"/>
<path d="M16.3167 43.2182C15.8146 42.8648 15.0706 42.6044 14.1593 42.3813C13.1178 42.0837 12.3553 41.9535 11.7787 41.9907C10.3653 42.1023 9.60275 43.9993 9.86312 45.1338C10.0305 45.9149 10.5885 46.6589 11.3882 47.2726C11.4068 47.2912 11.444 47.3098 11.4626 47.347C11.63 47.4958 11.7973 47.6632 11.9461 47.8491C12.0949 48.0351 12.1879 48.3141 12.3181 48.5187H12.3367C12.5599 48.4071 12.8016 48.2211 13.0248 48.1467C13.2666 48.0723 13.4898 47.9979 13.7316 47.9607H13.8246C14.8475 47.8306 15.7216 47.4772 16.3167 46.9006C17.2466 45.9893 17.5814 44.0737 16.3167 43.2182ZM14.4941 43.553C13.9361 43.4414 13.3596 43.2182 12.876 43.0508C12.2809 42.8276 11.9089 42.4929 11.9647 42.3813C12.0391 42.2697 12.5971 42.3255 13.4154 42.53C13.7688 42.623 14.1221 42.7532 14.4941 42.8462C15.0892 42.9764 15.7402 43.3112 16.0563 43.5344C16.5027 43.8505 15.5728 43.7761 14.4755 43.5344" fill="#FFFAED"/>
<path d="M106.668 58.7112C106.147 58.4695 105.385 58.3393 104.306 58.2649C103.376 58.1719 102.595 58.1719 102 58.3207C100.512 58.7112 100.177 60.6083 100.735 61.78C101.088 62.5239 101.795 63.1376 102.706 63.6026H102.744C102.744 63.6026 102.781 63.6398 102.781 63.6584C102.985 63.77 103.19 63.9188 103.376 64.0675C103.562 64.2163 103.729 64.4767 103.897 64.6627H103.915C104.101 64.5139 104.287 64.2907 104.492 64.1605C104.696 64.0303 104.92 63.9374 105.124 63.8444C105.161 63.8444 105.18 63.8258 105.217 63.8072C106.184 63.491 106.947 62.9888 107.375 62.3193C108.007 61.3336 107.951 59.3064 106.649 58.7112M105.254 59.325C104.752 59.325 104.12 59.325 103.562 59.2506C102.446 59.0832 101.535 58.8414 102.074 58.6926C102.446 58.5811 103.171 58.5067 103.785 58.5811C104.157 58.6368 104.548 58.6183 104.901 58.6554C105.738 58.7484 106.277 58.8786 106.315 59.0088C106.352 59.139 105.868 59.325 105.236 59.325" fill="#FFFAED"/>
</svg>
